<svg xmlns="http://www.w3.org/2000/svg" xmlns:xlink="http://www.w3.org/1999/xlink" contentStyleType="text/css" height="739px" preserveAspectRatio="none" style="width:895px;height:739px;background:#FFFFFF;" version="1.1" viewBox="0 0 895 739" width="895px" zoomAndPan="magnify"><defs/><g><!--cluster Local Deployment--><g id="cluster_Local Deployment"><path d="M131.89,166.66 L274.2709,166.66 A3.75,3.75 0 0 1 276.7709,169.16 L283.7709,188.9569 L742.89,188.9569 A2.5,2.5 0 0 1 745.39,191.4569 L745.39,730.25 A2.5,2.5 0 0 1 742.89,732.75 L131.89,732.75 A2.5,2.5 0 0 1 129.39,730.25 L129.39,169.16 A2.5,2.5 0 0 1 131.89,166.66 " fill="none" style="stroke:#000000;stroke-width:1.5;"/><line style="stroke:#000000;stroke-width:1.5;" x1="129.39" x2="283.7709" y1="188.9569" y2="188.9569"/><text fill="#000000" font-family="sans-serif" font-size="14" font-weight="bold" lengthAdjust="spacing" textLength="141.3809" x="133.39" y="181.6551">Local Deployment</text></g><!--entity Nginx--><g id="elem_Nginx"><rect fill="#F1F1F1" height="46.2969" rx="2.5" ry="2.5" style="stroke:#181818;stroke-width:0.5;" width="80.4072" x="354.18" y="201.66"/><rect fill="#F1F1F1" height="10" style="stroke:#181818;stroke-width:0.5;" width="15" x="414.5872" y="206.66"/><rect fill="#F1F1F1" height="2" style="stroke:#181818;stroke-width:0.5;" width="4" x="412.5872" y="208.66"/><rect fill="#F1F1F1" height="2" style="stroke:#181818;stroke-width:0.5;" width="4" x="412.5872" y="212.66"/><text fill="#000000" font-family="sans-serif" font-size="14" lengthAdjust="spacing" textLength="40.4072" x="369.18" y="234.6551">Nginx</text></g><g id="elem_GMN10"><path d="M469.97,204.68 L469.97,220.81 L434.83,224.81 L469.97,228.81 L469.97,244.9456 A0,0 0 0 0 469.97,244.9456 L672.7923,244.9456 A0,0 0 0 0 672.7923,244.9456 L672.7923,214.68 L662.7923,204.68 L469.97,204.68 A0,0 0 0 0 469.97,204.68 " fill="#FFFFFF" style="stroke:#00000080;stroke-width:0.5;"/><path d="M662.7923,204.68 L662.7923,214.68 L672.7923,214.68 L662.7923,204.68 " fill="#FFFFFF" style="stroke:#00000080;stroke-width:0.5;"/><text fill="#000000" fill-opacity="0.50196" font-family="sans-serif" font-size="13" lengthAdjust="spacing" textLength="181.8223" x="475.97" y="221.7469">Acts as a reverse proxy and</text><text fill="#000000" fill-opacity="0.50196" font-family="sans-serif" font-size="13" lengthAdjust="spacing" textLength="164.2393" x="475.97" y="236.8797">manages SSL certificates</text></g><!--entity Backend--><g id="elem_Backend"><polygon fill="#15BE6C" points="344.2,322.51,354.2,312.51,444.5613,312.51,444.5613,348.8069,434.5613,358.8069,344.2,358.8069,344.2,322.51" style="stroke:#000000;stroke-width:0.5;"/><line style="stroke:#000000;stroke-width:0.5;" x1="434.5613" x2="444.5613" y1="322.51" y2="312.51"/><line style="stroke:#000000;stroke-width:0.5;" x1="344.2" x2="434.5613" y1="322.51" y2="322.51"/><line style="stroke:#000000;stroke-width:0.5;" x1="434.5613" x2="434.5613" y1="322.51" y2="358.8069"/><text fill="#000000" font-family="sans-serif" font-size="14" lengthAdjust="spacing" textLength="60.3613" x="359.2" y="345.5051">Backend</text></g><g id="elem_GMN14"><path d="M479.85,315.53 L479.85,331.66 L444.83,335.66 L479.85,339.66 L479.85,355.7956 A0,0 0 0 0 479.85,355.7956 L728.9276,355.7956 A0,0 0 0 0 728.9276,355.7956 L728.9276,325.53 L718.9276,315.53 L479.85,315.53 A0,0 0 0 0 479.85,315.53 " fill="#FFFFFF" style="stroke:#00000080;stroke-width:0.5;"/><path d="M718.9276,315.53 L718.9276,325.53 L728.9276,325.53 L718.9276,315.53 " fill="#FFFFFF" style="stroke:#00000080;stroke-width:0.5;"/><text fill="#000000" fill-opacity="0.50196" font-family="sans-serif" font-size="13" lengthAdjust="spacing" textLength="228.0776" x="485.85" y="332.5969">Webserver which handles requests</text><text fill="#000000" fill-opacity="0.50196" font-family="sans-serif" font-size="13" lengthAdjust="spacing" textLength="197.8755" x="485.85" y="347.7297">and glues everything together</text></g><!--entity ML--><g id="elem_ML"><polygon fill="#15BE6C" points="470.45,441.51,480.45,431.51,530.3289,431.51,530.3289,467.8069,520.3289,477.8069,470.45,477.8069,470.45,441.51" style="stroke:#000000;stroke-width:0.5;"/><line style="stroke:#000000;stroke-width:0.5;" x1="520.3289" x2="530.3289" y1="441.51" y2="431.51"/><line style="stroke:#000000;stroke-width:0.5;" x1="470.45" x2="520.3289" y1="441.51" y2="441.51"/><line style="stroke:#000000;stroke-width:0.5;" x1="520.3289" x2="520.3289" y1="441.51" y2="477.8069"/><text fill="#000000" font-family="sans-serif" font-size="14" lengthAdjust="spacing" textLength="19.8789" x="485.45" y="464.5051">ML</text></g><g id="elem_GMN18"><path d="M531.17,545.95 L531.17,616.4813 A0,0 0 0 0 531.17,616.4813 L729.606,616.4813 A0,0 0 0 0 729.606,616.4813 L729.606,555.95 L719.606,545.95 L598.26,545.95 L523.93,478.21 L590.26,545.95 L531.17,545.95 A0,0 0 0 0 531.17,545.95 " fill="#FFFFFF" style="stroke:#00000080;stroke-width:0.5;"/><path d="M719.606,545.95 L719.606,555.95 L729.606,555.95 L719.606,545.95 " fill="#FFFFFF" style="stroke:#00000080;stroke-width:0.5;"/><text fill="#000000" fill-opacity="0.50196" font-family="sans-serif" font-size="13" lengthAdjust="spacing" textLength="175.6016" x="537.17" y="563.0169">Creates texts embeddings,</text><text fill="#000000" fill-opacity="0.50196" font-family="sans-serif" font-size="13" lengthAdjust="spacing" textLength="177.436" x="537.17" y="578.1497">provides answers based on</text><text fill="#000000" fill-opacity="0.50196" font-family="sans-serif" font-size="13" lengthAdjust="spacing" textLength="171.4502" x="537.17" y="593.2825">retrieved information, and</text><text fill="#000000" fill-opacity="0.50196" font-family="sans-serif" font-size="13" lengthAdjust="spacing" textLength="141.832" x="537.17" y="608.4153">generates summaries</text></g><!--entity MongoDB--><g id="elem_MongoDB"><path d="M347.71,442.01 C347.71,432.01 391.3872,432.01 391.3872,432.01 C391.3872,432.01 435.0645,432.01 435.0645,442.01 L435.0645,467.3069 C435.0645,477.3069 391.3872,477.3069 391.3872,477.3069 C391.3872,477.3069 347.71,477.3069 347.71,467.3069 L347.71,442.01 " fill="#00BFFF" style="stroke:#000000;stroke-width:0.5;"/><path d="M347.71,442.01 C347.71,452.01 391.3872,452.01 391.3872,452.01 C391.3872,452.01 435.0645,452.01 435.0645,442.01 " fill="none" style="stroke:#000000;stroke-width:0.5;"/><text fill="#000000" font-family="sans-serif" font-size="14" lengthAdjust="spacing" textLength="67.3545" x="357.71" y="469.0051">MongoDB</text></g><g id="elem_GMN22"><path d="M565.11,434.52 L565.11,474.7856 L729.6622,474.7856 L729.6622,444.52 L719.6622,434.52 L565.11,434.52 " fill="#FFFFFF" style="stroke:#00000080;stroke-width:0.5;"/><path d="M719.6622,434.52 L719.6622,444.52 L729.6622,444.52 L719.6622,434.52 " fill="#FFFFFF" style="stroke:#00000080;stroke-width:1.0;"/><text fill="#000000" fill-opacity="0.50196" font-family="sans-serif" font-size="13" lengthAdjust="spacing" textLength="132.7485" x="571.11" y="451.5869">Stores requests logs</text><text fill="#000000" fill-opacity="0.50196" font-family="sans-serif" font-size="13" lengthAdjust="spacing" textLength="143.5522" x="571.11" y="466.7197">and client-side events</text></g><!--entity Milvus--><g id="elem_Milvus"><path d="M195.23,442.01 C195.23,432.01 227.3853,432.01 227.3853,432.01 C227.3853,432.01 259.5405,432.01 259.5405,442.01 L259.5405,467.3069 C259.5405,477.3069 227.3853,477.3069 227.3853,477.3069 C227.3853,477.3069 195.23,477.3069 195.23,467.3069 L195.23,442.01 " fill="#00BFFF" style="stroke:#000000;stroke-width:0.5;"/><path d="M195.23,442.01 C195.23,452.01 227.3853,452.01 227.3853,452.01 C227.3853,452.01 259.5405,452.01 259.5405,442.01 " fill="none" style="stroke:#000000;stroke-width:0.5;"/><text fill="#000000" font-family="sans-serif" font-size="14" lengthAdjust="spacing" textLength="44.3105" x="205.23" y="469.0051">Milvus</text></g><g id="elem_GMN26"><path d="M145.23,307.96 L145.23,363.3584 A0,0 0 0 0 145.23,363.3584 L223.39,363.3584 L227.39,431.75 L231.39,363.3584 L309.5347,363.3584 A0,0 0 0 0 309.5347,363.3584 L309.5347,317.96 L299.5347,307.96 L145.23,307.96 A0,0 0 0 0 145.23,307.96 " fill="#FFFFFF" style="stroke:#00000080;stroke-width:0.5;"/><path d="M299.5347,307.96 L299.5347,317.96 L309.5347,317.96 L299.5347,307.96 " fill="#FFFFFF" style="stroke:#00000080;stroke-width:0.5;"/><text fill="#000000" fill-opacity="0.50196" font-family="sans-serif" font-size="13" lengthAdjust="spacing" textLength="138.3979" x="151.23" y="325.0269">Stores chunks of text</text><text fill="#000000" fill-opacity="0.50196" font-family="sans-serif" font-size="13" lengthAdjust="spacing" textLength="143.3047" x="151.23" y="340.1597">and their embeddings</text><text fill="#000000" fill-opacity="0.50196" font-family="sans-serif" font-size="13" lengthAdjust="spacing" textLength="129.5938" x="151.23" y="355.2925">for similarity search</text></g><!--entity Mongo\nExpress--><g id="elem_Mongo\nExpress"><rect fill="#F1F1F1" height="62.5938" rx="2.5" ry="2.5" style="stroke:#181818;stroke-width:0.5;" width="94.9746" x="400.9" y="549.92"/><rect fill="#F1F1F1" height="10" style="stroke:#181818;stroke-width:0.5;" width="15" x="475.8746" y="554.92"/><rect fill="#F1F1F1" height="2" style="stroke:#181818;stroke-width:0.5;" width="4" x="473.8746" y="556.92"/><rect fill="#F1F1F1" height="2" style="stroke:#181818;stroke-width:0.5;" width="4" x="473.8746" y="560.92"/><text fill="#000000" font-family="sans-serif" font-size="14" lengthAdjust="spacing" textLength="46.9697" x="415.9" y="582.9151">Mongo</text><text fill="#000000" font-family="sans-serif" font-size="14" lengthAdjust="spacing" textLength="54.9746" x="415.9" y="599.212">Express</text></g><g id="elem_GMN30"><path d="M558.8,676.48 L558.8,716.7456 A0,0 0 0 0 558.8,716.7456 L721.9748,716.7456 A0,0 0 0 0 721.9748,716.7456 L721.9748,686.48 L711.9748,676.48 L611.19,676.48 L496.34,610.54 L603.19,676.48 L558.8,676.48 A0,0 0 0 0 558.8,676.48 " fill="#FFFFFF" style="stroke:#00000080;stroke-width:0.5;"/><path d="M711.9748,676.48 L711.9748,686.48 L721.9748,686.48 L711.9748,676.48 " fill="#FFFFFF" style="stroke:#00000080;stroke-width:0.5;"/><text fill="#000000" fill-opacity="0.50196" font-family="sans-serif" font-size="13" lengthAdjust="spacing" textLength="78.6665" x="564.8" y="693.5469">Web GUI for</text><text fill="#000000" fill-opacity="0.50196" font-family="sans-serif" font-size="13" lengthAdjust="spacing" textLength="142.1748" x="564.8" y="708.6797">Mongo administration</text></g><!--entity Attu--><g id="elem_Attu"><rect fill="#F1F1F1" height="46.2969" rx="2.5" ry="2.5" style="stroke:#181818;stroke-width:0.5;" width="69.4287" x="169.67" y="558.07"/><rect fill="#F1F1F1" height="10" style="stroke:#181818;stroke-width:0.5;" width="15" x="219.0987" y="563.07"/><rect fill="#F1F1F1" height="2" style="stroke:#181818;stroke-width:0.5;" width="4" x="217.0987" y="565.07"/><rect fill="#F1F1F1" height="2" style="stroke:#181818;stroke-width:0.5;" width="4" x="217.0987" y="569.07"/><text fill="#000000" font-family="sans-serif" font-size="14" lengthAdjust="spacing" textLength="29.4287" x="184.67" y="591.0651">Attu</text></g><g id="elem_GMN34"><path d="M145.03,676.48 L145.03,716.7456 A0,0 0 0 0 145.03,716.7456 L305.7356,716.7456 A0,0 0 0 0 305.7356,716.7456 L305.7356,686.48 L295.7356,676.48 L225.8,676.48 L208.53,604.62 L217.8,676.48 L145.03,676.48 A0,0 0 0 0 145.03,676.48 " fill="#FFFFFF" style="stroke:#00000080;stroke-width:0.5;"/><path d="M295.7356,676.48 L295.7356,686.48 L305.7356,686.48 L295.7356,676.48 " fill="#FFFFFF" style="stroke:#00000080;stroke-width:0.5;"/><text fill="#000000" fill-opacity="0.50196" font-family="sans-serif" font-size="13" lengthAdjust="spacing" textLength="78.6665" x="151.03" y="693.5469">Web GUI for</text><text fill="#000000" fill-opacity="0.50196" font-family="sans-serif" font-size="13" lengthAdjust="spacing" textLength="139.7056" x="151.03" y="708.6797">Milvus administration</text></g><!--entity Redash--><g id="elem_Redash"><rect fill="#F1F1F1" height="46.2969" rx="2.5" ry="2.5" style="stroke:#181818;stroke-width:0.5;" width="91.9736" x="274.4" y="558.07"/><rect fill="#F1F1F1" height="10" style="stroke:#181818;stroke-width:0.5;" width="15" x="346.3736" y="563.07"/><rect fill="#F1F1F1" height="2" style="stroke:#181818;stroke-width:0.5;" width="4" x="344.3736" y="565.07"/><rect fill="#F1F1F1" height="2" style="stroke:#181818;stroke-width:0.5;" width="4" x="344.3736" y="569.07"/><text fill="#000000" font-family="sans-serif" font-size="14" lengthAdjust="spacing" textLength="51.9736" x="289.4" y="591.0651">Redash</text></g><g id="elem_GMN38"><path d="M340.92,676.48 L340.92,716.7456 A0,0 0 0 0 340.92,716.7456 L523.8551,716.7456 A0,0 0 0 0 523.8551,716.7456 L523.8551,686.48 L513.8551,676.48 L417.29,676.48 L342.51,604.62 L409.29,676.48 L340.92,676.48 A0,0 0 0 0 340.92,676.48 " fill="#FFFFFF" style="stroke:#00000080;stroke-width:0.5;"/><path d="M513.8551,676.48 L513.8551,686.48 L523.8551,686.48 L513.8551,676.48 " fill="#FFFFFF" style="stroke:#00000080;stroke-width:0.5;"/><text fill="#000000" fill-opacity="0.50196" font-family="sans-serif" font-size="13" lengthAdjust="spacing" textLength="161.9351" x="346.92" y="693.5469">Displays logs and events</text><text fill="#000000" fill-opacity="0.50196" font-family="sans-serif" font-size="13" lengthAdjust="spacing" textLength="118.2759" x="346.92" y="708.6797">in beautiful charts</text></g><!--entity Chat\nPop-up--><g id="elem_Chat\nPop-up"><polygon fill="#15BE6C" points="416.03,82.22,426.03,72.22,504.7361,72.22,504.7361,124.8138,494.7361,134.8138,416.03,134.8138,416.03,82.22" style="stroke:#000000;stroke-width:0.5;"/><line style="stroke:#000000;stroke-width:0.5;" x1="494.7361" x2="504.7361" y1="82.22" y2="72.22"/><line style="stroke:#000000;stroke-width:0.5;" x1="416.03" x2="494.7361" y1="82.22" y2="82.22"/><line style="stroke:#000000;stroke-width:0.5;" x1="494.7361" x2="494.7361" y1="82.22" y2="134.8138"/><text fill="#000000" font-family="sans-serif" font-size="14" lengthAdjust="spacing" textLength="32.7168" x="431.03" y="105.2151">Chat</text><text fill="#000000" font-family="sans-serif" font-size="14" lengthAdjust="spacing" textLength="48.7061" x="431.03" y="121.512">Pop-up</text></g><g id="elem_GMN3"><path d="M6,83.38 L6,123.6456 L240.77,123.6456 L240.77,93.38 L230.77,83.38 L6,83.38 " fill="#FFFFFF" style="stroke:#00000080;stroke-width:0.5;"/><path d="M230.77,83.38 L230.77,93.38 L240.77,93.38 L230.77,83.38 " fill="#FFFFFF" style="stroke:#00000080;stroke-width:1.0;"/><text fill="#000000" fill-opacity="0.50196" font-family="sans-serif" font-size="13" lengthAdjust="spacing" textLength="213.77" x="12" y="100.4469">App which embeds into websites</text><text fill="#000000" fill-opacity="0.50196" font-family="sans-serif" font-size="13" lengthAdjust="spacing" textLength="185.2437" x="12" y="115.5797">and provides Q&amp;A over docs</text></g><!--entity OpenAI--><g id="elem_OpenAI"><path d="M773.995,558.8733 C778.6609,554.0294 782.5144,553.2114 786.477,559.6513 C789.3535,553.9022 793.715,551.8363 798.4353,557.7627 C802.6869,551.1268 807.0572,551.6629 810.8167,558.2243 C814.9227,552.4777 820.1897,552.5056 824.3365,558.1758 C827.8363,552.3839 833.1759,551.7953 836.6008,558.2509 C840.1674,551.8126 845.9961,553.2282 848.9607,558.8669 C853.4374,551.7288 857.8663,553.1355 862.5205,558.6771 C866.8717,551.8366 872.4825,553.6451 875.927,559.6251 C881.9455,561.4506 884.3862,565.1978 879.8917,570.7649 C887.3611,572.9636 888.3294,576.9404 883.5346,582.8393 C887.1292,588.1903 885.6612,592.6072 878.9676,593.5863 C883.2605,598.4766 883.3502,604.4242 875.6247,606.1053 C871.8526,614.0357 866.1393,613.2282 861.5734,606.8869 C857.5669,612.8906 851.872,612.9719 848.9251,605.8648 C846.2182,611.2915 841.6956,610.7704 838.24,606.708 C834.9474,612.5769 828.5883,612.0706 825.3927,606.5983 C821.3378,613.1415 815.4915,611.9799 812.3014,605.7145 C808.1369,611.6514 804.0827,612.0527 799.2509,606.4705 C795.6016,611.4853 789.6657,611.062 786.7001,605.6477 C783.2365,611.3446 778.433,611.7401 774.8235,605.7965 C767.1363,605.3208 763.6062,600.1277 768.5982,593.3237 C762.2812,591.4139 761.0704,586.4045 765.3872,581.5858 C760.6392,576.4311 762.3309,572.4125 768.3405,570 C764.7492,563.993 766.2657,559.1273 773.995,558.8733 " fill="#F1F1F1" style="stroke:#181818;stroke-width:0.5;"/><text fill="#000000" font-family="sans-serif" font-size="14" lengthAdjust="spacing" textLength="51.0986" x="779.65" y="577.9151">OpenAI</text><text fill="#000000" font-family="sans-serif" font-size="14" lengthAdjust="spacing" textLength="87.4795" x="779.65" y="594.212">Completions</text></g><!--entity AWS--><g id="elem_AWS"><path d="M774.661,432.6226 C778.0437,426.9099 781.7169,426.9932 785.2083,432.5206 C789.2305,424.9945 793.608,424.896 798.6547,431.5489 C803.5188,425.0732 807.5993,425.0181 812.0467,431.9647 C814.7989,426.4052 818.7468,425.3296 823.3154,429.9552 C828.9705,423.7665 832.9897,425.8978 836.3292,432.3409 C839.4661,427.8364 844.5441,426.5574 847.4227,432.6123 C851.1656,427.2783 856.0065,426.5602 859.9722,432.3612 C864.6955,426.1066 869.2254,426.4711 873.8578,432.4643 C879.6243,434.1334 880.6163,439.0731 876.9427,443.4041 C883.3482,445.3863 884.9818,449.7925 881.1037,455.3552 C885.247,461.4192 884.2245,465.8863 876.9974,468.3601 C881.2694,472.9488 881.0316,477.3734 874.338,479.2952 C871.2707,485.9751 864.7923,486.4909 860.4145,480.7661 C858.2514,486.6798 855.1983,488.7526 849.4951,484.6099 C844.8238,492.1083 839.8541,492.3674 834.8848,484.9008 C833.3812,490.5878 828.5467,491.4265 824.5478,487.6171 C818.9867,493.0555 814.6714,491.9458 811.0761,485.4062 C805.6383,491.8077 801.9338,489.7396 798.0857,483.7408 C794.0242,489.4606 788.5593,487.8195 785.806,482.3101 C780.4325,486.5105 775.6133,485.7794 774.1927,478.3595 C766.8614,476.6036 766.4087,472.0923 770.2407,466.5885 C763.9571,464.5104 761.7907,460.6134 766.5201,454.9996 C762.4448,450.5854 763.7573,445.0296 770.2173,444.2332 C765.237,438.9932 767.223,433.1098 774.661,432.6226 " fill="#F1F1F1" style="stroke:#181818;stroke-width:0.5;"/><text fill="#000000" font-family="sans-serif" font-size="14" lengthAdjust="spacing" textLength="32.3066" x="779.57" y="451.3551">AWS</text><text fill="#000000" font-family="sans-serif" font-size="14" lengthAdjust="spacing" textLength="85.6338" x="779.57" y="467.652">Translations</text></g><!--entity API Consumers--><g id="elem_API Consumers"><ellipse cx="328.3801" cy="73.87" fill="#F1F1F1" rx="8" ry="8" style="stroke:#181818;stroke-width:0.5;"/><path d="M328.3801,81.87 L328.3801,108.87 M315.3801,89.87 L341.3801,89.87 M328.3801,108.87 L315.3801,123.87 M328.3801,108.87 L341.3801,123.87 " fill="none" style="stroke:#181818;stroke-width:0.5;"/><text fill="#000000" font-family="sans-serif" font-size="14" lengthAdjust="spacing" textLength="105.2803" x="275.74" y="138.3651">API Consumers</text></g><!--link GMN3 to Chat\nPop-up--><g id="link_GMN3_Chat\nPop-up"><path d="M154.9,82.89 C204.04,53.45 301.52,6 380.89,35.37 C401,42.81 419.47,57.87 433.53,71.94 " fill="none" id="GMN3-Chat\nPop-up" style="stroke:#181818;stroke-width:1.0;stroke-dasharray:7.0,7.0;"/></g><!--link MongoDB to GMN22--><g id="link_MongoDB_GMN22"><path d="M412.95,431.61 C427.72,417.58 448.61,400.95 470.89,393.36 C524.31,375.15 586.65,410.01 621.1,434.21 " fill="none" id="MongoDB-GMN22" style="stroke:#181818;stroke-width:1.0;stroke-dasharray:7.0,7.0;"/></g><!--link Chat\nPop-up to Nginx--><g id="link_Chat\nPop-up_Nginx"><path d="M443.39,135.24 C431.93,155.95 417.08,182.8 406.74,201.48 " fill="none" id="Chat\nPop-up-Nginx" style="stroke:#181818;stroke-width:1.0;stroke-dasharray:7.0,7.0;"/></g><!--link API Consumers to Nginx--><g id="link_API Consumers_Nginx"><path d="M349.09,141.93 C359.9,161.48 372.77,184.74 382.02,201.46 " fill="none" id="API Consumers-Nginx" style="stroke:#181818;stroke-width:1.0;stroke-dasharray:7.0,7.0;"/></g><!--link Nginx to Backend--><g id="link_Nginx_Backend"><path d="M394.39,248.37 C394.39,267.05 394.39,293.46 394.39,312.14 " fill="none" id="Nginx-Backend" style="stroke:#181818;stroke-width:1.0;"/></g><!--link Backend to ML--><g id="link_Backend_ML"><path d="M414.82,359.22 C433.59,379.94 461.26,410.47 480.01,431.17 " fill="none" id="Backend-ML" style="stroke:#181818;stroke-width:1.0;"/></g><!--link Backend to MongoDB--><g id="link_Backend_MongoDB"><path d="M393.81,359.22 C393.27,380.07 392.48,410.86 391.95,431.56 " fill="none" id="Backend-MongoDB" style="stroke:#181818;stroke-width:1.0;"/></g><!--link Backend to Milvus--><g id="link_Backend_Milvus"><path d="M362.19,359.22 C332.42,380.07 288.47,410.86 258.92,431.56 " fill="none" id="Backend-Milvus" style="stroke:#181818;stroke-width:1.0;"/></g><!--link Backend to AWS--><g id="link_Backend_AWS"><path d="M444.93,357.56 C450.77,359.66 456.68,361.65 462.39,363.36 C585.53,400.31 622.25,386.36 745.39,423.36 C751.58,425.22 757.97,427.36 764.3,429.63 " fill="none" id="Backend-AWS" style="stroke:#181818;stroke-width:1.0;"/></g><!--link ML to OpenAI--><g id="link_ML_OpenAI"><path d="M530.78,476.97 C536.17,480.25 541.83,483.38 547.39,485.95 C630.83,524.57 659.14,514.07 745.39,545.95 C751.63,548.26 758.09,550.82 764.49,553.46 " fill="none" id="ML-OpenAI" style="stroke:#181818;stroke-width:1.0;"/></g><!--link Milvus to Attu--><g id="link_Milvus_Attu"><path d="M223.33,477.64 C219.17,500.13 212.75,534.9 208.56,557.62 " fill="none" id="Milvus-Attu" style="stroke:#181818;stroke-width:1.0;"/></g><!--link MongoDB to Mongo\nExpress--><g id="link_MongoDB_Mongo\nExpress"><path d="M401.44,477.64 C410.58,497.61 424.16,527.28 434.36,549.58 " fill="none" id="MongoDB-Mongo\nExpress" style="stroke:#181818;stroke-width:1.0;"/></g><!--link MongoDB to Redash--><g id="link_MongoDB_Redash"><path d="M378.86,477.64 C366.04,500.13 346.21,534.9 333.27,557.62 " fill="none" id="MongoDB-Redash" style="stroke:#181818;stroke-width:1.0;"/></g><!--SRC=[XPJ1Rjim38RlVWh2XvsQeZji679Bqsuea6xTig67k0V5OcmXCkb9SfjWsBkFbZtNY5jKboGKyP7_Jof-RwXMJbMWLL1RvH7-923dKkNxmd53UicM7MZ4sk-FMzjWTyzEe-lkjbQIO_GpK-XYgWbSgM3ov6-I-A4AiNwjmliFbzSVbw_0Jo3XDSWkdfDUBkBvT35X3nU2ZvsborA5ZEwudZLrciH25dTX3ekwXgVIv2LWjKNjmL1WUCAjDm5zHeeqr8uVZKOFtzyjW1zHNEFS9qbkkT6GVgkH5ZSPBRcgBGR3v5DG7hhuaBQuNsVqqodoLZqdIJH9Qb6h2cbpnRcoS8MrvME55DBUZbpGJ1A0z6jXw936Q9JXJ56sElBWMvu2XzAXp5kwFXn1-i-eKYHu3-lr2d9qmUnChaHUqcDQXrh7aVIKV2zUe6jLTpwLWhG2S_YxGHzwZmfP80zjwMCe3HKGkC1GeXlNk5sDy5iEiafpM3fiUu601v4Gfw05uCyo6emNqvv45BIBh84f8uV16IcdPM0xTbMqzAoJMo2XYqpVL9MIl5xfy1RIMwQ2howdQjU1tKWSM2vwXRarCe2PbuPQdHIcK6CV6pzY1gu7ObusjFV0koYqGue_neqaPwqKyAOoLheEH_2eN5ucfpiGky_e-b0BsR_WgSmCllow0S5b5BD1wSgGyS55foR8HGZDcw2exotI3zJAbo-mheolhJfsdhQJwctCo11iKVvPpAwnOfHougqytSturJx0-JbiulO_9FF5tGqivGqrbQp5V7pLVy9i1fj-foNu_riCtwucaMuT9k4e-3GgJrP20ec_kbVU1hhaBaNSR4Czzhd6CBJJsywrX-GV]--></g></svg>