<svg xmlns="http://www.w3.org/2000/svg" xmlns:xlink="http://www.w3.org/1999/xlink" contentStyleType="text/css" height="1163px" preserveAspectRatio="none" style="width:367px;height:1163px;background:#FFFFFF;" version="1.1" viewBox="0 0 367 1163" width="367px" zoomAndPan="magnify"><defs/><g><polygon fill="#F1F1F1" points="91.2466,10,305.4946,10,295.4946,26.9844,305.4946,43.9688,91.2466,43.9688" style="stroke:#181818;stroke-width:0.5;"/><text fill="#000000" font-family="sans-serif" font-size="12" lengthAdjust="spacing" textLength="184.248" x="101.2466" y="31.1387">Incoming GET /answer request</text><polygon fill="#FFC0CB" points="168.5083,112.3711,218.2329,112.3711,228.2329,129.3555,218.2329,146.3398,168.5083,146.3398" style="stroke:#181818;stroke-width:0.5;"/><text fill="#000000" font-family="sans-serif" font-size="12" lengthAdjust="spacing" textLength="29.7246" x="178.5083" y="133.5098">Error</text><polygon fill="#00BFFF" points="156.7317,63.9688,230.0095,63.9688,242.0095,75.9688,230.0095,87.9688,156.7317,87.9688,144.7317,75.9688,156.7317,63.9688" style="stroke:#181818;stroke-width:0.5;"/><text fill="#FF0000" font-family="sans-serif" font-size="11" font-weight="bold" lengthAdjust="spacing" textLength="15.3882" x="197.3706" y="98.1792">no</text><text fill="#000000" font-family="sans-serif" font-size="11" lengthAdjust="spacing" textLength="73.2778" x="156.7317" y="79.7769">token is valid</text><text fill="#008000" font-family="sans-serif" font-size="11" font-weight="bold" lengthAdjust="spacing" textLength="21.1782" x="242.0095" y="73.3745">yes</text><rect fill="#F1F1F1" height="47.9375" rx="12.5" ry="12.5" style="stroke:#181818;stroke-width:0.5;" width="141.8047" x="122.4683" y="236.7422"/><text fill="#000000" font-family="sans-serif" font-size="12" lengthAdjust="spacing" textLength="94.7461" x="132.4683" y="257.8809">Will be using all</text><text fill="#000000" font-family="sans-serif" font-size="12" lengthAdjust="spacing" textLength="121.8047" x="132.4683" y="271.8496">available collections</text><polygon fill="#00BFFF" points="126.9731,188.3398,259.7681,188.3398,271.7681,200.3398,259.7681,212.3398,126.9731,212.3398,114.9731,200.3398,126.9731,188.3398" style="stroke:#181818;stroke-width:0.5;"/><text fill="#FF0000" font-family="sans-serif" font-size="11" font-weight="bold" lengthAdjust="spacing" textLength="15.3882" x="197.3706" y="222.5503">no</text><text fill="#000000" font-family="sans-serif" font-size="11" lengthAdjust="spacing" textLength="132.7949" x="126.9731" y="204.1479">collections are specified</text><text fill="#008000" font-family="sans-serif" font-size="11" font-weight="bold" lengthAdjust="spacing" textLength="21.1782" x="271.7681" y="197.7456">yes</text><polygon fill="#00BFFF" points="193.3706,304.6797,205.3706,316.6797,193.3706,328.6797,181.3706,316.6797,193.3706,304.6797" style="stroke:#181818;stroke-width:0.5;"/><polygon fill="#FFC0CB" points="168.5083,397.082,218.2329,397.082,228.2329,414.0664,218.2329,431.0508,168.5083,431.0508" style="stroke:#181818;stroke-width:0.5;"/><text fill="#000000" font-family="sans-serif" font-size="12" lengthAdjust="spacing" textLength="29.7246" x="178.5083" y="418.2207">Error</text><polygon fill="#00BFFF" points="133.9609,348.6797,252.7803,348.6797,264.7803,360.6797,252.7803,372.6797,133.9609,372.6797,121.9609,360.6797,133.9609,348.6797" style="stroke:#181818;stroke-width:0.5;"/><text fill="#008000" font-family="sans-serif" font-size="11" font-weight="bold" lengthAdjust="spacing" textLength="21.1782" x="197.3706" y="382.8901">yes</text><text fill="#000000" font-family="sans-serif" font-size="11" lengthAdjust="spacing" textLength="118.8193" x="133.9609" y="364.4878">collections are empty</text><text fill="#FF0000" font-family="sans-serif" font-size="11" font-weight="bold" lengthAdjust="spacing" textLength="15.3882" x="264.7803" y="358.0854">no</text><rect fill="#F1F1F1" height="47.9375" style="stroke:#181818;stroke-width:0.5;" width="163.625" x="111.5581" y="521.4531"/><line style="stroke:#181818;stroke-width:0.5;" x1="116.5581" x2="116.5581" y1="521.4531" y2="569.3906"/><line style="stroke:#181818;stroke-width:0.5;" x1="270.1831" x2="270.1831" y1="521.4531" y2="569.3906"/><text fill="#000000" font-family="sans-serif" font-size="12" lengthAdjust="spacing" textLength="143.625" x="121.5581" y="542.5918">Detect source language</text><text fill="#000000" font-family="sans-serif" font-size="12" lengthAdjust="spacing" textLength="118.4707" x="121.5581" y="556.5605">and translate query</text><polygon fill="#00BFFF" points="142.9817,473.0508,243.7595,473.0508,255.7595,485.0508,243.7595,497.0508,142.9817,497.0508,130.9817,485.0508,142.9817,473.0508" style="stroke:#181818;stroke-width:0.5;"/><text fill="#FF0000" font-family="sans-serif" font-size="11" font-weight="bold" lengthAdjust="spacing" textLength="15.3882" x="197.3706" y="507.2612">no</text><text fill="#000000" font-family="sans-serif" font-size="11" lengthAdjust="spacing" textLength="100.7778" x="142.9817" y="488.8589">query is in English</text><text fill="#008000" font-family="sans-serif" font-size="11" font-weight="bold" lengthAdjust="spacing" textLength="21.1782" x="255.7595" y="482.4565">yes</text><polygon fill="#00BFFF" points="193.3706,589.3906,205.3706,601.3906,193.3706,613.3906,181.3706,601.3906,193.3706,589.3906" style="stroke:#181818;stroke-width:0.5;"/><rect fill="#F1F1F1" height="33.9688" style="stroke:#181818;stroke-width:0.5;" width="151.5195" x="117.6108" y="633.3906"/><line style="stroke:#181818;stroke-width:0.5;" x1="122.6108" x2="122.6108" y1="633.3906" y2="667.3594"/><line style="stroke:#181818;stroke-width:0.5;" x1="264.1304" x2="264.1304" y1="633.3906" y2="667.3594"/><text fill="#000000" font-family="sans-serif" font-size="12" lengthAdjust="spacing" textLength="131.5195" x="127.6108" y="654.5293">Get query embedding</text><rect fill="#F1F1F1" height="33.9688" style="stroke:#181818;stroke-width:0.5;" width="162.5879" x="112.0767" y="687.3594"/><line style="stroke:#181818;stroke-width:0.5;" x1="117.0767" x2="117.0767" y1="687.3594" y2="721.3281"/><line style="stroke:#181818;stroke-width:0.5;" x1="269.6646" x2="269.6646" y1="687.3594" y2="721.3281"/><text fill="#000000" font-family="sans-serif" font-size="12" lengthAdjust="spacing" textLength="142.5879" x="122.0767" y="708.498">Retrieve canned replies</text><polygon fill="#00BFFF" points="117.3965,741.3281,269.3447,741.3281,281.3447,754.1328,269.3447,766.9375,117.3965,766.9375,105.3965,754.1328,117.3965,741.3281" style="stroke:#181818;stroke-width:0.5;"/><text fill="#000000" font-family="sans-serif" font-size="11" lengthAdjust="spacing" textLength="151.9482" x="117.3965" y="751.5386">most relevant canned reply</text><text fill="#000000" font-family="sans-serif" font-size="11" lengthAdjust="spacing" textLength="150.874" x="117.3965" y="764.3433">passes relevance threshold</text><text fill="#FF0000" font-family="sans-serif" font-size="11" font-weight="bold" lengthAdjust="spacing" textLength="15.3882" x="90.0083" y="751.5386">no</text><text fill="#008000" font-family="sans-serif" font-size="11" font-weight="bold" lengthAdjust="spacing" textLength="21.1782" x="281.3447" y="751.5386">yes</text><rect fill="#F1F1F1" height="47.9375" style="stroke:#181818;stroke-width:0.5;" width="157.9766" x="16.4082" y="776.9375"/><line style="stroke:#181818;stroke-width:0.5;" x1="21.4082" x2="21.4082" y1="776.9375" y2="824.875"/><line style="stroke:#181818;stroke-width:0.5;" x1="169.3848" x2="169.3848" y1="776.9375" y2="824.875"/><text fill="#000000" font-family="sans-serif" font-size="12" lengthAdjust="spacing" textLength="137.9766" x="26.4082" y="798.0762">Retrieve most relevant</text><text fill="#000000" font-family="sans-serif" font-size="12" lengthAdjust="spacing" textLength="85.7051" x="26.4082" y="812.0449">chunks of text</text><rect fill="#F1F1F1" height="47.9375" style="stroke:#181818;stroke-width:0.5;" width="168.793" x="11" y="858.8438"/><line style="stroke:#181818;stroke-width:0.5;" x1="16" x2="16" y1="858.8438" y2="906.7813"/><line style="stroke:#181818;stroke-width:0.5;" x1="174.793" x2="174.793" y1="858.8438" y2="906.7813"/><text fill="#000000" font-family="sans-serif" font-size="12" lengthAdjust="spacing" textLength="143.2383" x="21" y="879.9824">Generate answer based</text><text fill="#000000" font-family="sans-serif" font-size="12" lengthAdjust="spacing" textLength="148.793" x="21" y="893.9512">on most relevant chunks</text><rect fill="#F1F1F1" height="61.9063" rx="12.5" ry="12.5" style="stroke:#181818;stroke-width:0.5;" width="129.834" x="226.4277" y="776.9375"/><text fill="#000000" font-family="sans-serif" font-size="12" lengthAdjust="spacing" textLength="109.834" x="236.4277" y="798.0762">Use most relevant</text><text fill="#000000" font-family="sans-serif" font-size="12" lengthAdjust="spacing" textLength="95.7656" x="236.4277" y="812.0449">canned reply as</text><text fill="#000000" font-family="sans-serif" font-size="12" lengthAdjust="spacing" textLength="62.1152" x="236.4277" y="826.0137">an answer</text><polygon fill="#00BFFF" points="193.3706,912.7813,205.3706,924.7813,193.3706,936.7813,181.3706,924.7813,193.3706,912.7813" style="stroke:#181818;stroke-width:0.5;"/><rect fill="#F1F1F1" height="47.9375" style="stroke:#181818;stroke-width:0.5;" width="155.7383" x="115.5015" y="1005.1836"/><line style="stroke:#181818;stroke-width:0.5;" x1="120.5015" x2="120.5015" y1="1005.1836" y2="1053.1211"/><line style="stroke:#181818;stroke-width:0.5;" x1="266.2397" x2="266.2397" y1="1005.1836" y2="1053.1211"/><text fill="#000000" font-family="sans-serif" font-size="12" lengthAdjust="spacing" textLength="135.7383" x="125.5015" y="1026.3223">Translate answer back</text><text fill="#000000" font-family="sans-serif" font-size="12" lengthAdjust="spacing" textLength="115.6582" x="125.5015" y="1040.291">to source language</text><polygon fill="#00BFFF" points="119.8806,956.7813,266.8606,956.7813,278.8606,968.7813,266.8606,980.7813,119.8806,980.7813,107.8806,968.7813,119.8806,956.7813" style="stroke:#181818;stroke-width:0.5;"/><text fill="#FF0000" font-family="sans-serif" font-size="11" font-weight="bold" lengthAdjust="spacing" textLength="15.3882" x="197.3706" y="990.9917">no</text><text fill="#000000" font-family="sans-serif" font-size="11" lengthAdjust="spacing" textLength="146.98" x="119.8806" y="972.5894">source language is English</text><text fill="#008000" font-family="sans-serif" font-size="11" font-weight="bold" lengthAdjust="spacing" textLength="21.1782" x="278.8606" y="966.187">yes</text><polygon fill="#00BFFF" points="193.3706,1073.1211,205.3706,1085.1211,193.3706,1097.1211,181.3706,1085.1211,193.3706,1073.1211" style="stroke:#181818;stroke-width:0.5;"/><polygon fill="#98FB98" points="139.5073,1117.1211,247.2339,1117.1211,257.2339,1134.1055,247.2339,1151.0898,139.5073,1151.0898" style="stroke:#181818;stroke-width:0.5;"/><text fill="#000000" font-family="sans-serif" font-size="12" lengthAdjust="spacing" textLength="87.7266" x="149.5073" y="1138.2598">Return answer</text><line style="stroke:#181818;stroke-width:1.0;" x1="193.3706" x2="193.3706" y1="87.9688" y2="112.3711"/><polygon fill="#181818" points="189.3706,102.3711,193.3706,112.3711,197.3706,102.3711,193.3706,106.3711" style="stroke:#181818;stroke-width:1.0;"/><line style="stroke:#181818;stroke-width:1.0;" x1="242.0095" x2="254.0095" y1="75.9688" y2="75.9688"/><polygon fill="#181818" points="250.0095,116.3555,254.0095,126.3555,258.0095,116.3555,254.0095,120.3555" style="stroke:#181818;stroke-width:1.0;"/><line style="stroke:#181818;stroke-width:1.0;" x1="254.0095" x2="254.0095" y1="75.9688" y2="168.3398"/><line style="stroke:#181818;stroke-width:1.0;" x1="254.0095" x2="193.3706" y1="168.3398" y2="168.3398"/><line style="stroke:#181818;stroke-width:1.0;" x1="193.3706" x2="193.3706" y1="168.3398" y2="188.3398"/><polygon fill="#181818" points="189.3706,178.3398,193.3706,188.3398,197.3706,178.3398,193.3706,182.3398" style="stroke:#181818;stroke-width:1.0;"/><line style="stroke:#181818;stroke-width:1.0;" x1="193.3706" x2="193.3706" y1="43.9688" y2="63.9688"/><polygon fill="#181818" points="189.3706,53.9688,193.3706,63.9688,197.3706,53.9688,193.3706,57.9688" style="stroke:#181818;stroke-width:1.0;"/><line style="stroke:#181818;stroke-width:1.0;" x1="193.3706" x2="193.3706" y1="212.3398" y2="236.7422"/><polygon fill="#181818" points="189.3706,226.7422,193.3706,236.7422,197.3706,226.7422,193.3706,230.7422" style="stroke:#181818;stroke-width:1.0;"/><line style="stroke:#181818;stroke-width:1.0;" x1="271.7681" x2="283.7681" y1="200.3398" y2="200.3398"/><polygon fill="#181818" points="279.7681,250.7109,283.7681,260.7109,287.7681,250.7109,283.7681,254.7109" style="stroke:#181818;stroke-width:1.0;"/><line style="stroke:#181818;stroke-width:1.0;" x1="283.7681" x2="283.7681" y1="200.3398" y2="316.6797"/><line style="stroke:#181818;stroke-width:1.0;" x1="283.7681" x2="205.3706" y1="316.6797" y2="316.6797"/><polygon fill="#181818" points="215.3706,312.6797,205.3706,316.6797,215.3706,320.6797,211.3706,316.6797" style="stroke:#181818;stroke-width:1.0;"/><line style="stroke:#181818;stroke-width:1.0;" x1="193.3706" x2="193.3706" y1="284.6797" y2="304.6797"/><polygon fill="#181818" points="189.3706,294.6797,193.3706,304.6797,197.3706,294.6797,193.3706,298.6797" style="stroke:#181818;stroke-width:1.0;"/><line style="stroke:#181818;stroke-width:1.0;" x1="193.3706" x2="193.3706" y1="372.6797" y2="397.082"/><polygon fill="#181818" points="189.3706,387.082,193.3706,397.082,197.3706,387.082,193.3706,391.082" style="stroke:#181818;stroke-width:1.0;"/><line style="stroke:#181818;stroke-width:1.0;" x1="264.7803" x2="276.7803" y1="360.6797" y2="360.6797"/><polygon fill="#181818" points="272.7803,401.0664,276.7803,411.0664,280.7803,401.0664,276.7803,405.0664" style="stroke:#181818;stroke-width:1.0;"/><line style="stroke:#181818;stroke-width:1.0;" x1="276.7803" x2="276.7803" y1="360.6797" y2="453.0508"/><line style="stroke:#181818;stroke-width:1.0;" x1="276.7803" x2="193.3706" y1="453.0508" y2="453.0508"/><line style="stroke:#181818;stroke-width:1.0;" x1="193.3706" x2="193.3706" y1="453.0508" y2="473.0508"/><polygon fill="#181818" points="189.3706,463.0508,193.3706,473.0508,197.3706,463.0508,193.3706,467.0508" style="stroke:#181818;stroke-width:1.0;"/><line style="stroke:#181818;stroke-width:1.0;" x1="193.3706" x2="193.3706" y1="328.6797" y2="348.6797"/><polygon fill="#181818" points="189.3706,338.6797,193.3706,348.6797,197.3706,338.6797,193.3706,342.6797" style="stroke:#181818;stroke-width:1.0;"/><line style="stroke:#181818;stroke-width:1.0;" x1="193.3706" x2="193.3706" y1="497.0508" y2="521.4531"/><polygon fill="#181818" points="189.3706,511.4531,193.3706,521.4531,197.3706,511.4531,193.3706,515.4531" style="stroke:#181818;stroke-width:1.0;"/><line style="stroke:#181818;stroke-width:1.0;" x1="255.7595" x2="285.1831" y1="485.0508" y2="485.0508"/><polygon fill="#181818" points="281.1831,535.4219,285.1831,545.4219,289.1831,535.4219,285.1831,539.4219" style="stroke:#181818;stroke-width:1.0;"/><line style="stroke:#181818;stroke-width:1.0;" x1="285.1831" x2="285.1831" y1="485.0508" y2="601.3906"/><line style="stroke:#181818;stroke-width:1.0;" x1="285.1831" x2="205.3706" y1="601.3906" y2="601.3906"/><polygon fill="#181818" points="215.3706,597.3906,205.3706,601.3906,215.3706,605.3906,211.3706,601.3906" style="stroke:#181818;stroke-width:1.0;"/><line style="stroke:#181818;stroke-width:1.0;" x1="193.3706" x2="193.3706" y1="569.3906" y2="589.3906"/><polygon fill="#181818" points="189.3706,579.3906,193.3706,589.3906,197.3706,579.3906,193.3706,583.3906" style="stroke:#181818;stroke-width:1.0;"/><line style="stroke:#181818;stroke-width:1.0;" x1="193.3706" x2="193.3706" y1="613.3906" y2="633.3906"/><polygon fill="#181818" points="189.3706,623.3906,193.3706,633.3906,197.3706,623.3906,193.3706,627.3906" style="stroke:#181818;stroke-width:1.0;"/><line style="stroke:#181818;stroke-width:1.0;" x1="193.3706" x2="193.3706" y1="667.3594" y2="687.3594"/><polygon fill="#181818" points="189.3706,677.3594,193.3706,687.3594,197.3706,677.3594,193.3706,681.3594" style="stroke:#181818;stroke-width:1.0;"/><line style="stroke:#181818;stroke-width:1.0;" x1="95.3965" x2="95.3965" y1="824.875" y2="858.8438"/><polygon fill="#181818" points="91.3965,848.8438,95.3965,858.8438,99.3965,848.8438,95.3965,852.8438" style="stroke:#181818;stroke-width:1.0;"/><line style="stroke:#181818;stroke-width:1.0;" x1="105.3965" x2="95.3965" y1="754.1328" y2="754.1328"/><line style="stroke:#181818;stroke-width:1.0;" x1="95.3965" x2="95.3965" y1="754.1328" y2="776.9375"/><polygon fill="#181818" points="91.3965,766.9375,95.3965,776.9375,99.3965,766.9375,95.3965,770.9375" style="stroke:#181818;stroke-width:1.0;"/><line style="stroke:#181818;stroke-width:1.0;" x1="281.3447" x2="291.3447" y1="754.1328" y2="754.1328"/><line style="stroke:#181818;stroke-width:1.0;" x1="291.3447" x2="291.3447" y1="754.1328" y2="776.9375"/><polygon fill="#181818" points="287.3447,766.9375,291.3447,776.9375,295.3447,766.9375,291.3447,770.9375" style="stroke:#181818;stroke-width:1.0;"/><line style="stroke:#181818;stroke-width:1.0;" x1="95.3965" x2="95.3965" y1="906.7813" y2="924.7813"/><line style="stroke:#181818;stroke-width:1.0;" x1="95.3965" x2="181.3706" y1="924.7813" y2="924.7813"/><polygon fill="#181818" points="171.3706,920.7813,181.3706,924.7813,171.3706,928.7813,175.3706,924.7813" style="stroke:#181818;stroke-width:1.0;"/><line style="stroke:#181818;stroke-width:1.0;" x1="291.3447" x2="291.3447" y1="838.8438" y2="924.7813"/><line style="stroke:#181818;stroke-width:1.0;" x1="291.3447" x2="205.3706" y1="924.7813" y2="924.7813"/><polygon fill="#181818" points="215.3706,920.7813,205.3706,924.7813,215.3706,928.7813,211.3706,924.7813" style="stroke:#181818;stroke-width:1.0;"/><line style="stroke:#181818;stroke-width:1.0;" x1="193.3706" x2="193.3706" y1="721.3281" y2="741.3281"/><polygon fill="#181818" points="189.3706,731.3281,193.3706,741.3281,197.3706,731.3281,193.3706,735.3281" style="stroke:#181818;stroke-width:1.0;"/><line style="stroke:#181818;stroke-width:1.0;" x1="193.3706" x2="193.3706" y1="980.7813" y2="1005.1836"/><polygon fill="#181818" points="189.3706,995.1836,193.3706,1005.1836,197.3706,995.1836,193.3706,999.1836" style="stroke:#181818;stroke-width:1.0;"/><line style="stroke:#181818;stroke-width:1.0;" x1="278.8606" x2="290.8606" y1="968.7813" y2="968.7813"/><polygon fill="#181818" points="286.8606,1019.1523,290.8606,1029.1523,294.8606,1019.1523,290.8606,1023.1523" style="stroke:#181818;stroke-width:1.0;"/><line style="stroke:#181818;stroke-width:1.0;" x1="290.8606" x2="290.8606" y1="968.7813" y2="1085.1211"/><line style="stroke:#181818;stroke-width:1.0;" x1="290.8606" x2="205.3706" y1="1085.1211" y2="1085.1211"/><polygon fill="#181818" points="215.3706,1081.1211,205.3706,1085.1211,215.3706,1089.1211,211.3706,1085.1211" style="stroke:#181818;stroke-width:1.0;"/><line style="stroke:#181818;stroke-width:1.0;" x1="193.3706" x2="193.3706" y1="1053.1211" y2="1073.1211"/><polygon fill="#181818" points="189.3706,1063.1211,193.3706,1073.1211,197.3706,1063.1211,193.3706,1067.1211" style="stroke:#181818;stroke-width:1.0;"/><line style="stroke:#181818;stroke-width:1.0;" x1="193.3706" x2="193.3706" y1="936.7813" y2="956.7813"/><polygon fill="#181818" points="189.3706,946.7813,193.3706,956.7813,197.3706,946.7813,193.3706,950.7813" style="stroke:#181818;stroke-width:1.0;"/><line style="stroke:#181818;stroke-width:1.0;" x1="193.3706" x2="193.3706" y1="1097.1211" y2="1117.1211"/><polygon fill="#181818" points="189.3706,1107.1211,193.3706,1117.1211,197.3706,1107.1211,193.3706,1111.1211" style="stroke:#181818;stroke-width:1.0;"/><!--SRC=[dL8zRzim4DtrAmx8adZ9hXWUsXX6ro915oqdyLacH1yL7gLMgFFVIycEeRf0RKIRUBptoQN6mM6LSHLjR-FmRBaElAVV6QNFMDvxCQU_BrmrTV2TcA_U-K06QBKPIjTXchzdxzdoyGIOvT-aydihDMtMB_J8eZyHAE2jWyPbbjajtKVVGCWgzUoiUQ2uIx_tosg4pmFCQh4GlrWyJF1thPKcNuVWmsewQAnp6PpYl587GDBI01st8CPkZqnfxf0yUb7Y0D8MbTrQN2FDVoGIAa6TZbROkKAuP-kuTA0PwjDdbM3Vnk52nSNsZUxdscU4AV0mZ25ReRNKpkhkckbdn2IHr7UX0ZcMkkCQoNbw2p6aAXr7q0HykCLtla4yNazsInYJiZoau- -8mQ9FGR88J7eThRFGmr7utcjCHmuzIvnV6GffMHNwCKqYuov0TzvTBVJC-HTy8TMkaqR9RodYLpmSBsyW2AFNq_CjMM4AyK8NugRb_sSn0RxglyGpOyGwfdoYUvhNU576MEYDRRwS6pkxg9f2ehyi-AOkxrfsc4PZb5tu4BlA_W00]--></g></svg>