<svg xmlns="http://www.w3.org/2000/svg" xmlns:xlink="http://www.w3.org/1999/xlink" contentStyleType="text/css" height="313px" preserveAspectRatio="none" style="width:925px;height:313px;background:#FFFFFF;" version="1.1" viewBox="0 0 925 313" width="925px" zoomAndPan="magnify"><defs/><g><text fill="#000000" font-family="sans-serif" font-size="10" lengthAdjust="spacing" textLength="12.7246" x="5" y="25.2822">48</text><text fill="#000000" font-family="sans-serif" font-size="10" lengthAdjust="spacing" textLength="12.7246" x="33" y="25.2822">49</text><text fill="#000000" font-family="sans-serif" font-size="10" lengthAdjust="spacing" textLength="12.7246" x="61" y="25.2822">50</text><text fill="#000000" font-family="sans-serif" font-size="10" lengthAdjust="spacing" textLength="12.7246" x="89" y="25.2822">51</text><text fill="#000000" font-family="sans-serif" font-size="10" lengthAdjust="spacing" textLength="12.7246" x="117" y="25.2822">52</text><text fill="#000000" font-family="sans-serif" font-size="10" lengthAdjust="spacing" textLength="6.3623" x="145" y="25.2822">1</text><text fill="#000000" font-family="sans-serif" font-size="10" lengthAdjust="spacing" textLength="6.3623" x="173" y="25.2822">2</text><text fill="#000000" font-family="sans-serif" font-size="10" lengthAdjust="spacing" textLength="6.3623" x="201" y="25.2822">3</text><text fill="#000000" font-family="sans-serif" font-size="10" lengthAdjust="spacing" textLength="6.3623" x="229" y="25.2822">4</text><text fill="#000000" font-family="sans-serif" font-size="10" lengthAdjust="spacing" textLength="6.3623" x="257" y="25.2822">5</text><text fill="#000000" font-family="sans-serif" font-size="10" lengthAdjust="spacing" textLength="6.3623" x="285" y="25.2822">6</text><text fill="#000000" font-family="sans-serif" font-size="10" lengthAdjust="spacing" textLength="6.3623" x="313" y="25.2822">7</text><text fill="#000000" font-family="sans-serif" font-size="10" lengthAdjust="spacing" textLength="6.3623" x="341" y="25.2822">8</text><text fill="#000000" font-family="sans-serif" font-size="10" lengthAdjust="spacing" textLength="6.3623" x="369" y="25.2822">9</text><text fill="#000000" font-family="sans-serif" font-size="10" lengthAdjust="spacing" textLength="12.7246" x="397" y="25.2822">10</text><text fill="#000000" font-family="sans-serif" font-size="10" lengthAdjust="spacing" textLength="12.7246" x="425" y="25.2822">11</text><text fill="#000000" font-family="sans-serif" font-size="10" lengthAdjust="spacing" textLength="12.7246" x="453" y="25.2822">12</text><text fill="#000000" font-family="sans-serif" font-size="10" lengthAdjust="spacing" textLength="12.7246" x="481" y="25.2822">13</text><text fill="#000000" font-family="sans-serif" font-size="10" lengthAdjust="spacing" textLength="12.7246" x="509" y="25.2822">14</text><text fill="#000000" font-family="sans-serif" font-size="10" lengthAdjust="spacing" textLength="12.7246" x="537" y="25.2822">15</text><text fill="#000000" font-family="sans-serif" font-size="10" lengthAdjust="spacing" textLength="12.7246" x="565" y="25.2822">16</text><text fill="#000000" font-family="sans-serif" font-size="10" lengthAdjust="spacing" textLength="12.7246" x="593" y="25.2822">17</text><text fill="#000000" font-family="sans-serif" font-size="10" lengthAdjust="spacing" textLength="12.7246" x="621" y="25.2822">18</text><text fill="#000000" font-family="sans-serif" font-size="10" lengthAdjust="spacing" textLength="12.7246" x="649" y="25.2822">19</text><text fill="#000000" font-family="sans-serif" font-size="10" lengthAdjust="spacing" textLength="12.7246" x="677" y="25.2822">20</text><text fill="#000000" font-family="sans-serif" font-size="10" lengthAdjust="spacing" textLength="12.7246" x="705" y="25.2822">21</text><text fill="#000000" font-family="sans-serif" font-size="10" lengthAdjust="spacing" textLength="12.7246" x="733" y="25.2822">22</text><text fill="#000000" font-family="sans-serif" font-size="10" lengthAdjust="spacing" textLength="12.7246" x="761" y="25.2822">23</text><line style="stroke:none;stroke-width:1.0;" x1="0" x2="0" y1="16" y2="295.875"/><line style="stroke:none;stroke-width:1.0;" x1="28" x2="28" y1="16" y2="295.875"/><line style="stroke:none;stroke-width:1.0;" x1="56" x2="56" y1="16" y2="295.875"/><line style="stroke:none;stroke-width:1.0;" x1="84" x2="84" y1="16" y2="295.875"/><line style="stroke:none;stroke-width:1.0;" x1="112" x2="112" y1="16" y2="295.875"/><line style="stroke:none;stroke-width:1.0;" x1="140" x2="140" y1="16" y2="295.875"/><line style="stroke:none;stroke-width:1.0;" x1="168" x2="168" y1="16" y2="295.875"/><line style="stroke:none;stroke-width:1.0;" x1="196" x2="196" y1="16" y2="295.875"/><line style="stroke:none;stroke-width:1.0;" x1="224" x2="224" y1="16" y2="295.875"/><line style="stroke:none;stroke-width:1.0;" x1="252" x2="252" y1="16" y2="295.875"/><line style="stroke:none;stroke-width:1.0;" x1="280" x2="280" y1="16" y2="295.875"/><line style="stroke:none;stroke-width:1.0;" x1="308" x2="308" y1="16" y2="295.875"/><line style="stroke:none;stroke-width:1.0;" x1="336" x2="336" y1="16" y2="295.875"/><line style="stroke:none;stroke-width:1.0;" x1="364" x2="364" y1="16" y2="295.875"/><line style="stroke:none;stroke-width:1.0;" x1="392" x2="392" y1="16" y2="295.875"/><line style="stroke:none;stroke-width:1.0;" x1="420" x2="420" y1="16" y2="295.875"/><line style="stroke:none;stroke-width:1.0;" x1="448" x2="448" y1="16" y2="295.875"/><line style="stroke:none;stroke-width:1.0;" x1="476" x2="476" y1="16" y2="295.875"/><line style="stroke:none;stroke-width:1.0;" x1="504" x2="504" y1="16" y2="295.875"/><line style="stroke:none;stroke-width:1.0;" x1="532" x2="532" y1="16" y2="295.875"/><line style="stroke:none;stroke-width:1.0;" x1="560" x2="560" y1="16" y2="295.875"/><line style="stroke:none;stroke-width:1.0;" x1="588" x2="588" y1="16" y2="295.875"/><line style="stroke:none;stroke-width:1.0;" x1="616" x2="616" y1="16" y2="295.875"/><line style="stroke:none;stroke-width:1.0;" x1="644" x2="644" y1="16" y2="295.875"/><line style="stroke:none;stroke-width:1.0;" x1="672" x2="672" y1="16" y2="295.875"/><line style="stroke:none;stroke-width:1.0;" x1="700" x2="700" y1="16" y2="295.875"/><line style="stroke:none;stroke-width:1.0;" x1="728" x2="728" y1="16" y2="295.875"/><line style="stroke:none;stroke-width:1.0;" x1="756" x2="756" y1="16" y2="295.875"/><line style="stroke:none;stroke-width:1.0;" x1="768" x2="768" y1="16" y2="295.875"/><line style="stroke:none;stroke-width:1.0;" x1="0" x2="0" y1="0" y2="16"/><line style="stroke:none;stroke-width:1.0;" x1="16" x2="16" y1="0" y2="16"/><text fill="#000000" font-family="sans-serif" font-size="12" font-weight="bold" lengthAdjust="spacing" textLength="26.1094" x="0" y="11.1387">Nov</text><line style="stroke:none;stroke-width:1.0;" x1="140" x2="140" y1="0" y2="16"/><text fill="#000000" font-family="sans-serif" font-size="12" font-weight="bold" lengthAdjust="spacing" textLength="62.7891" x="46.6055" y="11.1387">Dec 2023</text><line style="stroke:none;stroke-width:1.0;" x1="264" x2="264" y1="0" y2="16"/><text fill="#000000" font-family="sans-serif" font-size="12" font-weight="bold" lengthAdjust="spacing" textLength="58.6816" x="172.6592" y="11.1387">Jan 2024</text><line style="stroke:none;stroke-width:1.0;" x1="380" x2="380" y1="0" y2="16"/><text fill="#000000" font-family="sans-serif" font-size="12" font-weight="bold" lengthAdjust="spacing" textLength="62.502" x="290.749" y="11.1387">Feb 2024</text><line style="stroke:none;stroke-width:1.0;" x1="504" x2="504" y1="0" y2="16"/><text fill="#000000" font-family="sans-serif" font-size="12" font-weight="bold" lengthAdjust="spacing" textLength="63.5332" x="410.2334" y="11.1387">Mar 2024</text><line style="stroke:none;stroke-width:1.0;" x1="624" x2="624" y1="0" y2="16"/><text fill="#000000" font-family="sans-serif" font-size="12" font-weight="bold" lengthAdjust="spacing" textLength="61.3711" x="533.3145" y="11.1387">Apr 2024</text><line style="stroke:none;stroke-width:1.0;" x1="748" x2="748" y1="0" y2="16"/><text fill="#000000" font-family="sans-serif" font-size="12" font-weight="bold" lengthAdjust="spacing" textLength="65.4375" x="653.2813" y="11.1387">May 2024</text><line style="stroke:none;stroke-width:1.0;" x1="768" x2="768" y1="0" y2="16"/><text fill="#000000" font-family="sans-serif" font-size="12" font-weight="bold" lengthAdjust="spacing" textLength="21.5508" x="748" y="11.1387">Jun</text><line style="stroke:none;stroke-width:1.0;" x1="0" x2="768" y1="0" y2="0"/><line style="stroke:none;stroke-width:1.0;" x1="0" x2="768" y1="16" y2="16"/><line style="stroke:none;stroke-width:1.0;" x1="0" x2="768" y1="27" y2="27"/><line style="stroke:#181818;stroke-width:1.5;" x1="539" x2="539" y1="209.8516" y2="220.2539"/><line style="stroke:#181818;stroke-width:1.5;" x1="539" x2="547" y1="220.2539" y2="220.2539"/><polygon fill="#181818" points="543,216.2539,543,220.2539,543,224.2539,547,220.2539" style="stroke:#181818;stroke-width:1.5;"/><line style="stroke:#181818;stroke-width:1.5;" x1="583" x2="583" y1="243.4609" y2="253.8633"/><line style="stroke:#181818;stroke-width:1.5;" x1="583" x2="591" y1="253.8633" y2="253.8633"/><polygon fill="#181818" points="587,249.8633,587,253.8633,587,257.8633,591,253.8633" style="stroke:#181818;stroke-width:1.5;"/><polygon fill="#FFA500" points="2,29,7,34,2,39,-3,34" style="stroke:#FFA500;stroke-width:1.0;"/><polygon fill="#800080" points="62,45.8047,67,50.8047,62,55.8047,57,50.8047" style="stroke:#800080;stroke-width:1.0;"/><polygon fill="#800080" points="74,62.6094,79,67.6094,74,72.6094,69,67.6094" style="stroke:#800080;stroke-width:1.0;"/><polygon fill="#800080" points="178,79.4141,183,84.4141,178,89.4141,173,84.4141" style="stroke:#800080;stroke-width:1.0;"/><polygon fill="#800080" points="198,96.2188,203,101.2188,198,106.2188,193,101.2188" style="stroke:#800080;stroke-width:1.0;"/><polygon fill="#008000" points="206,113.0234,211,118.0234,206,123.0234,201,118.0234" style="stroke:#008000;stroke-width:1.0;"/><rect fill="#E2E2F0" height="12.8047" style="stroke:none;stroke-width:1.0;" width="200" x="266" y="129.8281"/><line style="stroke:#181818;stroke-width:1.0;" x1="266" x2="466" y1="129.8281" y2="129.8281"/><line style="stroke:#181818;stroke-width:1.0;" x1="266" x2="466" y1="142.6328" y2="142.6328"/><line style="stroke:#181818;stroke-width:1.0;" x1="266" x2="266" y1="129.8281" y2="142.6328"/><line style="stroke:#181818;stroke-width:1.0;" x1="466" x2="466" y1="129.8281" y2="142.6328"/><rect fill="#800080" height="12.8047" style="stroke:none;stroke-width:1.0;" width="4" x="470" y="146.6328"/><line style="stroke:#000000;stroke-width:1.0;" x1="470" x2="474" y1="146.6328" y2="146.6328"/><line style="stroke:#000000;stroke-width:1.0;" x1="470" x2="474" y1="159.4375" y2="159.4375"/><line style="stroke:#000000;stroke-width:1.0;" x1="470" x2="470" y1="146.6328" y2="159.4375"/><line style="stroke:#000000;stroke-width:1.0;" x1="474" x2="474" y1="146.6328" y2="159.4375"/><polygon fill="#000000" points="478,163.4375,483,168.4375,478,173.4375,473,168.4375" style="stroke:#000000;stroke-width:1.0;"/><polygon fill="#800080" points="534,180.2422,539,185.2422,534,190.2422,529,185.2422" style="stroke:#800080;stroke-width:1.0;"/><polygon fill="#808000" points="546,197.0469,551,202.0469,546,207.0469,541,202.0469" style="stroke:#808000;stroke-width:1.0;"/><rect fill="#00FFFF" height="12.8047" style="stroke:none;stroke-width:1.0;" width="40" x="550" y="213.8516"/><line style="stroke:#000000;stroke-width:1.0;" x1="550" x2="590" y1="213.8516" y2="213.8516"/><line style="stroke:#000000;stroke-width:1.0;" x1="550" x2="590" y1="226.6563" y2="226.6563"/><line style="stroke:#000000;stroke-width:1.0;" x1="550" x2="550" y1="213.8516" y2="226.6563"/><line style="stroke:#000000;stroke-width:1.0;" x1="590" x2="590" y1="213.8516" y2="226.6563"/><polygon fill="#808000" points="590,230.6563,595,235.6563,590,240.6563,585,235.6563" style="stroke:#808000;stroke-width:1.0;"/><rect fill="#00FFFF" height="12.8047" style="stroke:none;stroke-width:1.0;" width="172" x="594" y="247.4609"/><line style="stroke:#000000;stroke-width:1.0;" x1="594" x2="766" y1="247.4609" y2="247.4609"/><line style="stroke:#000000;stroke-width:1.0;" x1="594" x2="766" y1="260.2656" y2="260.2656"/><line style="stroke:#000000;stroke-width:1.0;" x1="594" x2="594" y1="247.4609" y2="260.2656"/><line style="stroke:#000000;stroke-width:1.0;" x1="766" x2="766" y1="247.4609" y2="260.2656"/><polygon fill="#808000" points="674,264.2656,679,269.2656,674,274.2656,669,269.2656" style="stroke:#808000;stroke-width:1.0;"/><polygon fill="#800080" points="746,281.0703,751,286.0703,746,291.0703,741,286.0703" style="stroke:#800080;stroke-width:1.0;"/><text fill="#000000" font-family="sans-serif" font-size="11" lengthAdjust="spacing" textLength="120.7905" x="10" y="39.2104">Application submitted</text><text fill="#000000" font-family="sans-serif" font-size="11" lengthAdjust="spacing" textLength="61.644" x="70" y="56.0151">Interview 1</text><text fill="#000000" font-family="sans-serif" font-size="11" lengthAdjust="spacing" textLength="61.644" x="82" y="72.8198">Interview 2</text><text fill="#000000" font-family="sans-serif" font-size="11" lengthAdjust="spacing" textLength="61.644" x="186" y="89.6245">Interview 3</text><text fill="#000000" font-family="sans-serif" font-size="11" lengthAdjust="spacing" textLength="61.644" x="206" y="106.4292">Interview 4</text><text fill="#000000" font-family="sans-serif" font-size="11" lengthAdjust="spacing" textLength="65.5435" x="214" y="123.2339">Offer to join</text><text fill="#000000" font-family="sans-serif" font-size="11" lengthAdjust="spacing" textLength="156.5781" x="270" y="140.0386">1-1 online meetings w peers</text><text fill="#000000" font-family="sans-serif" font-size="11" lengthAdjust="spacing" textLength="137.1938" x="478" y="156.8433">Kick-off summit (missed)</text><text fill="#000000" font-family="sans-serif" font-size="11" lengthAdjust="spacing" textLength="94.4829" x="486" y="173.6479">Arrival to London</text><text fill="#000000" font-family="sans-serif" font-size="11" lengthAdjust="spacing" textLength="175.3018" x="542" y="190.4526">Start of the teambuilding phase</text><text fill="#000000" font-family="sans-serif" font-size="11" lengthAdjust="spacing" textLength="38.4033" x="554" y="207.2573">Pair up</text><text fill="#000000" font-family="sans-serif" font-size="11" lengthAdjust="spacing" textLength="213.6675" x="594" y="224.062">Working on consumer goods discovery</text><text fill="#000000" font-family="sans-serif" font-size="11" lengthAdjust="spacing" textLength="27.2422" x="598" y="240.8667">Pivot</text><text fill="#000000" font-family="sans-serif" font-size="11" lengthAdjust="spacing" textLength="111.8638" x="598" y="257.6714">Working on robodog</text><text fill="#000000" font-family="sans-serif" font-size="11" lengthAdjust="spacing" textLength="49.3979" x="682" y="274.4761">Break up</text><text fill="#000000" font-family="sans-serif" font-size="11" lengthAdjust="spacing" textLength="169.3345" x="754" y="291.2808">End of the teambuilding phase</text><line style="stroke:none;stroke-width:1.0;" x1="0" x2="768" y1="295.875" y2="295.875"/><line style="stroke:none;stroke-width:1.0;" x1="0" x2="0" y1="295.875" y2="311.875"/><line style="stroke:none;stroke-width:1.0;" x1="16" x2="16" y1="295.875" y2="311.875"/><text fill="#000000" font-family="sans-serif" font-size="12" font-weight="bold" lengthAdjust="spacing" textLength="26.1094" x="0" y="307.0137">Nov</text><line style="stroke:none;stroke-width:1.0;" x1="140" x2="140" y1="295.875" y2="311.875"/><text fill="#000000" font-family="sans-serif" font-size="12" font-weight="bold" lengthAdjust="spacing" textLength="62.7891" x="46.6055" y="307.0137">Dec 2023</text><line style="stroke:none;stroke-width:1.0;" x1="264" x2="264" y1="295.875" y2="311.875"/><text fill="#000000" font-family="sans-serif" font-size="12" font-weight="bold" lengthAdjust="spacing" textLength="58.6816" x="172.6592" y="307.0137">Jan 2024</text><line style="stroke:none;stroke-width:1.0;" x1="380" x2="380" y1="295.875" y2="311.875"/><text fill="#000000" font-family="sans-serif" font-size="12" font-weight="bold" lengthAdjust="spacing" textLength="62.502" x="290.749" y="307.0137">Feb 2024</text><line style="stroke:none;stroke-width:1.0;" x1="504" x2="504" y1="295.875" y2="311.875"/><text fill="#000000" font-family="sans-serif" font-size="12" font-weight="bold" lengthAdjust="spacing" textLength="63.5332" x="410.2334" y="307.0137">Mar 2024</text><line style="stroke:none;stroke-width:1.0;" x1="624" x2="624" y1="295.875" y2="311.875"/><text fill="#000000" font-family="sans-serif" font-size="12" font-weight="bold" lengthAdjust="spacing" textLength="61.3711" x="533.3145" y="307.0137">Apr 2024</text><line style="stroke:none;stroke-width:1.0;" x1="748" x2="748" y1="295.875" y2="311.875"/><text fill="#000000" font-family="sans-serif" font-size="12" font-weight="bold" lengthAdjust="spacing" textLength="65.4375" x="653.2813" y="307.0137">May 2024</text><line style="stroke:none;stroke-width:1.0;" x1="768" x2="768" y1="295.875" y2="311.875"/><text fill="#000000" font-family="sans-serif" font-size="12" font-weight="bold" lengthAdjust="spacing" textLength="21.5508" x="748" y="307.0137">Jun</text><line style="stroke:none;stroke-width:1.0;" x1="0" x2="768" y1="311.875" y2="311.875"/><!--SRC=[ZPLDJ-Cm48Rl_XLpst8896cXg48hbez52wseji0U40StcGPJnuvi9rMruh_l96nB4mAjPFNBpundNh_Jd5h7ZKkuSevbHYXd8ouH5eXpkMJinBgbnE-i0Yu4JmnFuIy3S295AHHMNm26zF5SIst06QvinWqgn-2LlRAJW_yvsDZe5umSL4TQ2FsmwmM15_RPuuyiaoBYJcW5Df-cmZcCd-2PPncgElfBEJI5m0K4JI2ajGc4BS3X9j2j0JtF3xp0tmHwBG1bk9tDa5hLyAA5Qa6eJ7e5hIg9KaGdL69X0HcYiKyR2X0VKiWM7bMyehjUI3tUY6ZkwTcCn4f9BEYambgCzngf2Uv-1TVpzkWUZ145bsLhGwrY_Q4vmgZ_INa8w1cuPmI7F9tcGiPKCsJFt68pYDOnUnnpOI3FFcu6rFuVRUPbFDr_f1KLIlecMbDviR2HBj0irxrn1-jatspPn8xn6-tsAXd7ej3klQ0oyIw9MWurUgfZdTHhhB9_1MyKTEJv9EoPGJwlYKJu6t3e1NINbohUNVT3hnkmJuTBMEgGHXPZ40fkQMuJR8nN7Hdd9fFO6B1jI7SxqliCQOnP7ReoYEehSxVbF3YJF9hlOE3sWhQetnwqapNheUTBhbQbjldcStezP8tRbQB0jTzRzzwjrxRDJichRuy9DfRqVZyQ0fLkIrC5-wNVzlkT2Tb-WXduVV2F1m6jFboDxkXlO-3xbIdtMETgF0IhSnDXAO0pOfgNrjnZrxpWy3jNvRDb0BTavEkBczKFSAaAORHAomVBzSFe7JZgUMUYFDTGFV0mOXSuuxbq517fyde6S7_tqpjcGt9upXFAJSOvrvJNB6blyWy0]--></g></svg>